{
	"asset":{
		"version":"2.0",
		"generator":"Houdini GLTF 2.0 Exporter"
	},
	"accessors":[
		{
			"bufferView":0,
			"componentType":5123,
			"count":7116,
			"type":"SCALAR",
			"min":[0
			],
			"max":[1597
			]
		},
		{
			"bufferView":1,
			"componentType":5126,
			"count":1598,
			"type":"VEC3",
			"min":[-2.8179512,-41.1772995,-32.0881119
			],
			"max":[48.1904144,9.5297823,55.7915726
			]
		},
		{
			"bufferView":2,
			"componentType":5126,
			"count":1598,
			"type":"VEC3",
			"min":[0.0382819735,0.0355640799,0.0420296453
			],
			"max":[0.651840866,0.660968065,0.603300929
			]
		},
		{
			"bufferView":3,
			"componentType":5126,
			"count":1598,
			"type":"VEC4",
			"min":[-0.999307454,-0.711189926,-0.699371576,1
			],
			"max":[0.999167621,0.376639873,0.756931901,1
			]
		},
		{
			"bufferView":4,
			"componentType":5126,
			"count":1598,
			"type":"VEC2",
			"min":[-9.53674316e-07,-15
			],
			"max":[24.533741,1.3401041
			]
		},
		{
			"bufferView":5,
			"componentType":5126,
			"count":1598,
			"type":"VEC3",
			"min":[-0.999796331,-0.999668419,-0.997001529
			],
			"max":[0.999151766,1,0.998571932
			]
		}
	],
	"buffers":[
		{
			"uri":"S:\\Repositories\\ThreeJSGames\\fiber-game\\client\\public\\models\\Level\\lattice_data.bin",
			"byteLength":110112,
			"name":"main_buffer"
		}
	],
	"bufferViews":[
		{
			"buffer":0,
			"byteLength":14232,
			"target":34963
		},
		{
			"buffer":0,
			"byteOffset":14232,
			"byteLength":19176,
			"target":34962
		},
		{
			"buffer":0,
			"byteOffset":33408,
			"byteLength":19176,
			"target":34962
		},
		{
			"buffer":0,
			"byteOffset":52584,
			"byteLength":25568,
			"target":34962
		},
		{
			"buffer":0,
			"byteOffset":78152,
			"byteLength":12784,
			"target":34962
		},
		{
			"buffer":0,
			"byteOffset":90936,
			"byteLength":19176,
			"target":34962
		}
	],
	"nodes":[
		{
			"name":"file1",
			"mesh":0
		}
	],
	"meshes":[
		{
			"primitives":[
				{
					"attributes":{
						"POSITION":1,
						"TANGENT":3,
						"COLOR_0":2,
						"NORMAL":5,
						"TEXCOORD_0":4
					},
					"indices":0
				}
			],
			"name":"groupdelete3"
		}
	],
	"scenes":[
		{
			"nodes":[0
			]
		}
	],
	"scene":0
}
